<svg width="128" height="128" viewBox="0 0 128 128" fill="none" xmlns="http://www.w3.org/2000/svg">
<g clip-path="url(#clip0_1_2)">
<rect y="6" width="80" height="115" fill="#0056B3"/>
<path d="M7.71875 98.9375C18.5938 98.9375 26.6562 92.9375 26.6562 84.4062V84.3594C26.6562 77.4219 23.0938 73.5312 13.25 71.1406L5.51562 69.2656C0.125 67.9531 -2.07812 65.6562 -2.07812 62.3281V62.2812C-2.07812 57.9688 1.57812 55.1094 7.48438 55.1094C13.5312 55.1094 17.1406 58.25 17.7969 62.9844L17.8438 63.3125H25.625L25.5781 62.7031C24.9688 54.5469 18.1719 48.3125 7.48438 48.3125C-3.0625 48.3125 -10.4219 54.2656 -10.4219 62.6562V62.7031C-10.4219 69.7344 -5.96875 74 3.21875 76.2031L10.9531 78.0781C16.4844 79.4375 18.3125 81.4062 18.3125 84.9219V84.9688C18.3125 89.375 14.375 92.1406 7.76562 92.1406C1.10938 92.1406 -2.5 89.2812 -3.48438 84.4062L-3.57812 83.9375H-11.7344L-11.6875 84.3594C-10.7031 93.0781 -3.76562 98.9375 7.71875 98.9375ZM55.2031 98.9375C65.8438 98.9375 73.8125 92.5625 75.4062 84.5L75.5 84.0312H67.4844L67.3438 84.4531C65.9375 88.625 61.5781 91.7188 55.3906 91.7188C46.7188 91.7188 41.1875 85.8594 41 75.8281H76.1094V72.8281C76.1094 58.2031 68 48.3125 54.6875 48.3125C41.375 48.3125 32.75 58.6719 32.75 73.7656V73.8125C32.75 89.1406 41.1875 98.9375 55.2031 98.9375ZM54.6406 55.5312C61.7656 55.5312 67.0156 59.9844 67.8125 69.4531H41.1406C42.0312 60.3594 47.5625 55.5312 54.6406 55.5312Z" fill="white"/>
<path d="M84.7812 98H92.9375V30.3594H84.7812V98ZM124.016 98.9375C134.656 98.9375 142.625 92.5625 144.219 84.5L144.312 84.0312H136.297L136.156 84.4531C134.75 88.625 130.391 91.7188 124.203 91.7188C115.531 91.7188 110 85.8594 109.812 75.8281H144.922V72.8281C144.922 58.2031 136.812 48.3125 123.5 48.3125C110.188 48.3125 101.562 58.6719 101.562 73.7656V73.8125C101.562 89.1406 110 98.9375 124.016 98.9375ZM123.453 55.5312C130.578 55.5312 135.828 59.9844 136.625 69.4531H109.953C110.844 60.3594 116.375 55.5312 123.453 55.5312Z" fill="#0056B3"/>
</g>
<defs>
<clipPath id="clip0_1_2">
<rect width="128" height="128" fill="white"/>
</clipPath>
</defs>
</svg>
